<?xml version="1.0" encoding="UTF-8" standalone="no"?>
<!DOCTYPE svg PUBLIC "-//W3C//DTD SVG 1.1//EN" "http://www.w3.org/Graphics/SVG/1.1/DTD/svg11.dtd">
<svg width="100%" height="100%" viewBox="0 0 512 512" version="1.1" xmlns="http://www.w3.org/2000/svg" xmlns:xlink="http://www.w3.org/1999/xlink" xml:space="preserve" xmlns:serif="http://www.serif.com/" style="fill-rule:evenodd;clip-rule:evenodd;stroke-linejoin:round;stroke-miterlimit:2;">
    <path d="M346.65,304.3C295.37,258.716 217.22,258.716 165.94,304.3C161.333,308.287 158.681,314.087 158.681,320.18C158.681,331.7 168.161,341.18 179.681,341.18C184.924,341.18 189.981,339.217 193.85,335.68C229.292,304.181 283.298,304.181 318.74,335.68C322.584,339.097 327.552,340.986 332.695,340.986C344.218,340.986 353.701,331.503 353.701,319.98C353.701,313.983 351.132,308.264 346.65,304.28L346.65,304.3Z" style="fill:rgb(182,109,23);fill-rule:nonzero;"/>
    <path d="M256.28,183.7C199.916,183.622 145.595,205.065 104.48,243.62C100.035,247.602 97.492,253.295 97.492,259.262C97.492,270.782 106.971,280.262 118.492,280.262C123.971,280.262 129.239,278.117 133.16,274.29C202.07,209.865 310.49,209.865 379.4,274.29C383.321,278.117 388.589,280.262 394.068,280.262C405.589,280.262 415.068,270.782 415.068,259.262C415.068,253.295 412.525,247.602 408.08,243.62C366.965,205.065 312.644,183.622 256.28,183.7Z" style="fill:rgb(182,109,23);fill-rule:nonzero;"/>
    <circle cx="256.28" cy="393.41" r="32" style="fill:rgb(182,109,23);"/>
</svg>
